<svg width="40" height="26" viewBox="0 0 40 26" fill="none" xmlns="http://www.w3.org/2000/svg">
<path d="M39.0228 7.74601L38.3731 6.34006H36.7972H26.2387H24.7957L24.0993 7.57759C23.9157 7.90378 23.4611 8.90261 23.1674 11.1618C22.8618 10.7642 22.5463 10.3414 22.2233 9.90817C20.3037 7.33514 18.128 4.41889 15.1252 2.64186C13.5587 1.71467 11.5106 0.928468 9.50636 0.484807C8.50711 0.263573 6.93846 7.79923e-08 5.13979 7.79923e-08H3.74784C1.68131 7.79923e-08 0 1.64635 0 3.66991C0 5.69348 1.68131 7.33983 3.74784 7.33983H5.23845C7.44583 7.33983 8.8243 7.92346 10.5059 9.57006C11.9021 10.9372 13.049 12.797 14.2632 14.766C16.283 18.0411 18.5722 21.7533 22.66 24.0883C24.8808 25.3568 27.1702 26 29.4642 26C31.0702 26 32.6687 25.6826 34.2154 25.0566C36.1485 24.2742 37.704 22.8937 38.7137 21.0643C39.5552 19.5398 40 17.7467 40 15.8787C40.0001 10.2948 39.2521 8.24214 39.0228 7.74601ZM12.9138 8.59423C12.6938 8.34727 12.4675 8.10806 12.2331 7.87856C10.0718 5.76223 8.06855 4.94774 5.23836 4.94774H3.74784C3.02715 4.94774 2.44288 4.37562 2.44288 3.66991C2.44288 2.96421 3.02715 2.39209 3.74784 2.39209H5.13979C6.82832 2.39209 8.28178 2.66623 8.96767 2.81803C10.9046 3.24678 12.6878 3.9944 13.8617 4.68919C14.4735 5.05133 15.0541 5.48093 15.6077 5.95637L12.9138 8.59423ZM33.2822 22.8459C32.0634 23.3392 30.786 23.6079 29.4642 23.6079C27.6755 23.6079 25.8056 23.1157 23.8908 22.022C19.181 19.3317 17.1423 14.4093 14.4118 10.5103L17.3297 7.65307C20.5986 11.2716 22.8952 15.9318 25.343 15.9318C25.343 10.3237 26.2387 8.73215 26.2387 8.73215H36.7972C36.7972 8.73215 37.5572 10.377 37.5572 15.8786C37.5572 18.62 36.3358 21.61 33.2822 22.8459Z" fill="white"/>
</svg>
